<svg width="21" height="19" viewBox="0 0 21 19" fill="none" xmlns="http://www.w3.org/2000/svg">
<path d="M10.5 0.3125C4.70043 0.3125 3.65863e-05 4.13105 3.65863e-05 8.84375C3.65863e-05 10.7961 0.816248 12.5844 2.16976 14.024C1.55863 15.64 0.287146 17.01 0.266638 17.0264C-0.00406498 17.3135 -0.0778931 17.7318 0.0779663 18.0928C0.233826 18.4537 0.590662 18.6875 0.984412 18.6875C3.50687 18.6875 5.49613 17.6334 6.68969 16.7885C7.87504 17.1617 9.15472 17.375 10.5 17.375C16.2996 17.375 21 13.5564 21 8.84375C21 4.13105 16.2996 0.3125 10.5 0.3125ZM10.5 15.4062C9.40492 15.4062 8.32211 15.2381 7.28441 14.91L6.35336 14.6146L5.55355 15.1807C4.96703 15.5949 4.16312 16.0584 3.19515 16.3701C3.49457 15.8738 3.78578 15.316 4.01136 14.7213L4.44613 13.5688L3.60121 12.6746C2.85883 11.883 1.96879 10.5746 1.96879 8.84375C1.96879 5.22617 5.79554 2.28125 10.5 2.28125C15.2045 2.28125 19.0313 5.22617 19.0313 8.84375C19.0313 12.4613 15.2045 15.4062 10.5 15.4062Z" fill="#6C6B6B"/>
</svg>
