<svg width="21" height="20" viewBox="0 0 21 20" fill="none" xmlns="http://www.w3.org/2000/svg">
<path d="M18.8335 13.6667H12.9877L14.1575 17.174C14.3679 17.8074 14.2616 18.5095 13.871 19.0511C13.4804 19.5928 12.847 19.9167 12.1793 19.9167H10.5002C10.1908 19.9167 9.89808 19.7792 9.69912 19.5417L4.80329 13.6667H2.16683C1.01787 13.6667 0.0834961 12.7324 0.0834961 11.5834V2.20842C0.0834961 1.05946 1.01787 0.125084 2.16683 0.125084H16.0283C16.4521 0.126492 16.8656 0.256501 17.2139 0.497921C17.5623 0.739342 17.8292 1.08081 17.9793 1.47717L20.8512 9.13446C20.8948 9.25142 20.917 9.37526 20.9168 9.50008V11.5834C20.9168 12.7324 19.9825 13.6667 18.8335 13.6667ZM2.16683 11.5834H4.25016V2.20842H2.16683V11.5834ZM18.8335 9.68862L16.0283 2.20842H6.3335V12.248L10.9877 17.8334H12.1814L10.5543 12.9553C10.5015 12.7987 10.4868 12.6318 10.5114 12.4684C10.5359 12.305 10.5991 12.1498 10.6956 12.0157C10.7922 11.8815 10.9193 11.7724 11.0665 11.6972C11.2136 11.622 11.3766 11.583 11.5418 11.5834H18.8335V9.68862Z" fill="white"/>
</svg>
