<svg width="28" height="28" viewBox="0 0 28 28" fill="none" xmlns="http://www.w3.org/2000/svg">
<path d="M19.5685 16.3064C19.7795 16.5174 19.898 16.8036 19.898 17.102C19.898 17.4004 19.7795 17.6866 19.5685 17.8976L14.7955 22.6705C14.789 22.677 14.7822 22.6825 14.7755 22.6887C14.7556 22.7076 14.7356 22.7266 14.7144 22.7441C14.7052 22.7515 14.6954 22.7581 14.6861 22.7652C14.6663 22.7805 14.6466 22.796 14.6256 22.8099C14.618 22.8151 14.6097 22.8193 14.6019 22.8242C14.5787 22.839 14.5555 22.8536 14.531 22.8667C14.5254 22.8698 14.519 22.8723 14.5133 22.8753C14.4866 22.889 14.4594 22.9024 14.4313 22.9139C14.4275 22.9156 14.4234 22.9167 14.4195 22.9182C14.3895 22.9305 14.3589 22.9414 14.3279 22.9511C14.3239 22.9525 14.3196 22.953 14.3157 22.9543C14.2847 22.9636 14.2532 22.9714 14.2215 22.9779C14.2123 22.9797 14.2029 22.9806 14.1938 22.9821C14.1669 22.9869 14.1399 22.9916 14.1122 22.9942C14.0376 23.0018 13.9623 23.0018 13.8876 22.9942C13.8599 22.9914 13.8329 22.9868 13.8061 22.9821C13.7969 22.9805 13.7877 22.9797 13.7787 22.9779C13.7468 22.9714 13.7153 22.9636 13.6842 22.9543C13.6802 22.953 13.6761 22.9523 13.6721 22.9511C13.6411 22.9415 13.6106 22.9306 13.5807 22.9183L13.5687 22.9141C13.5409 22.9023 13.5135 22.8893 13.4867 22.8753C13.481 22.8723 13.4748 22.8698 13.469 22.8668C13.4449 22.8535 13.4212 22.8393 13.3981 22.8242C13.3903 22.8193 13.382 22.8151 13.3742 22.8099C13.3534 22.7958 13.3337 22.7805 13.3139 22.7652C13.3046 22.7581 13.2948 22.7515 13.2858 22.7441C13.2647 22.7263 13.2442 22.7079 13.2245 22.6887C13.2178 22.6825 13.211 22.677 13.2045 22.6705L8.43153 17.8976C8.22051 17.6866 8.10195 17.4004 8.10192 17.102C8.10189 16.8036 8.22041 16.5174 8.43139 16.3064C8.64237 16.0954 8.92854 15.9768 9.22695 15.9768C9.52535 15.9768 9.81154 16.0953 10.0226 16.3062L12.875 19.1591V10.625C12.875 10.3266 12.9935 10.0405 13.2045 9.8295C13.4155 9.61853 13.7016 9.5 14 9.5C14.2984 9.5 14.5845 9.61853 14.7955 9.8295C15.0065 10.0405 15.125 10.3266 15.125 10.625V19.1591L17.9774 16.3064C18.1885 16.0955 18.4746 15.977 18.773 15.977C19.0713 15.977 19.3575 16.0955 19.5685 16.3064ZM27.5 6.125V25.25C27.4993 25.8465 27.2621 26.4184 26.8403 26.8403C26.4184 27.2621 25.8465 27.4993 25.25 27.5H2.75C2.15347 27.4993 1.58156 27.2621 1.15975 26.8403C0.737938 26.4184 0.50067 25.8465 0.5 25.25V6.125C0.50013 6.08346 0.502524 6.04196 0.507172 6.00069C0.508437 5.99042 0.510547 5.9803 0.511953 5.97003C0.516172 5.93895 0.521234 5.90816 0.528125 5.87792C0.530656 5.86639 0.533891 5.85528 0.536844 5.84375C0.54726 5.80318 0.559936 5.76323 0.574813 5.72408C0.5855 5.69633 0.597219 5.66914 0.609969 5.64252C0.613063 5.63577 0.615313 5.62845 0.618828 5.62184L2.86883 1.12184C2.96226 0.934991 3.10588 0.777846 3.28359 0.668016C3.46131 0.558185 3.66609 0.500007 3.875 0.5H24.125C24.3339 0.500007 24.5387 0.558185 24.7164 0.668016C24.8941 0.777846 25.0377 0.934991 25.1312 1.12184L27.3812 5.62184C27.3845 5.62859 27.3868 5.63577 27.3902 5.64252C27.4208 5.70709 27.4452 5.77442 27.4632 5.84361C27.466 5.85514 27.4693 5.86653 27.4719 5.87806C27.4786 5.90816 27.4837 5.93867 27.488 5.96975C27.4895 5.98002 27.4916 5.99042 27.4928 6.00069C27.4975 6.04196 27.4999 6.08346 27.5 6.125ZM3.44525 5H24.5548L23.4298 2.75H4.57025L3.44525 5ZM25.2514 25.25L25.25 7.25H2.75V25.25H25.2514Z" fill="#6C6B6B"/>
</svg>
