<svg width="17" height="17" viewBox="0 0 17 17" fill="none" xmlns="http://www.w3.org/2000/svg">
<path d="M6.125 7.90625C6.43994 7.90625 6.74199 7.78114 6.96469 7.55844C7.18739 7.33574 7.3125 7.03369 7.3125 6.71875C7.3125 6.40381 7.18739 6.10176 6.96469 5.87906C6.74199 5.65636 6.43994 5.53125 6.125 5.53125C5.81006 5.53125 5.50801 5.65636 5.28531 5.87906C5.06261 6.10176 4.9375 6.40381 4.9375 6.71875C4.9375 7.03369 5.06261 7.33574 5.28531 7.55844C5.50801 7.78114 5.81006 7.90625 6.125 7.90625ZM12.0625 6.71875C12.0625 7.03369 11.9374 7.33574 11.7147 7.55844C11.492 7.78114 11.1899 7.90625 10.875 7.90625C10.5601 7.90625 10.258 7.78114 10.0353 7.55844C9.81261 7.33574 9.6875 7.03369 9.6875 6.71875C9.6875 6.40381 9.81261 6.10176 10.0353 5.87906C10.258 5.65636 10.5601 5.53125 10.875 5.53125C11.1899 5.53125 11.492 5.65636 11.7147 5.87906C11.9374 6.10176 12.0625 6.40381 12.0625 6.71875ZM4.67209 10.3442C4.8122 10.2741 4.97431 10.2623 5.12311 10.3112C5.27191 10.3602 5.39535 10.4659 5.46653 10.6054L5.46831 10.609L5.4885 10.6434C5.50928 10.6773 5.54372 10.7301 5.59359 10.7972C5.69394 10.9308 5.85484 11.1155 6.08759 11.3019C6.54656 11.6688 7.30834 12.0625 8.5 12.0625C9.69166 12.0625 10.4534 11.6688 10.9124 11.3025C11.1458 11.1155 11.3067 10.9308 11.4064 10.7972C11.4518 10.737 11.4937 10.6741 11.5317 10.609L11.5341 10.6048C11.6057 10.4654 11.7296 10.3599 11.8787 10.3114C12.0278 10.2629 12.1901 10.2754 12.33 10.3462C12.47 10.4169 12.5763 10.5401 12.6257 10.6889C12.6751 10.8377 12.6637 11 12.5939 11.1404V11.141L12.5927 11.1422V11.1434L12.5903 11.1469L12.5856 11.1558C12.5671 11.1912 12.5473 11.2259 12.5262 11.2598C12.4882 11.3233 12.4318 11.4094 12.357 11.5091C12.1538 11.7777 11.9176 12.0197 11.654 12.2293C10.9997 12.753 9.98022 13.25 8.5 13.25C7.01978 13.25 6.00031 12.753 5.346 12.2288C5.08266 12.0195 4.84667 11.7779 4.64359 11.5097C4.55928 11.3971 4.48271 11.2788 4.41441 11.1558L4.40966 11.1469L4.40788 11.1434L4.40728 11.1416L4.40669 11.1404C4.33637 10.9996 4.32483 10.8367 4.3746 10.6874C4.42437 10.5381 4.53137 10.4146 4.67209 10.3442ZM8.5 0.1875C3.90913 0.1875 0.1875 3.90913 0.1875 8.5C0.1875 13.0909 3.90913 16.8125 8.5 16.8125C13.0909 16.8125 16.8125 13.0909 16.8125 8.5C16.8125 3.90913 13.0909 0.1875 8.5 0.1875ZM1.375 8.5C1.375 4.56522 4.56522 1.375 8.5 1.375C12.4348 1.375 15.625 4.56522 15.625 8.5C15.625 12.4348 12.4348 15.625 8.5 15.625C4.56522 15.625 1.375 12.4348 1.375 8.5Z" fill="#116530"/>
</svg>
