<svg width="23" height="19" viewBox="0 0 23 19" fill="none" xmlns="http://www.w3.org/2000/svg">
<path d="M12.6251 4.93125V1.5C12.6251 1.20163 12.7436 0.915483 12.9546 0.704505C13.1656 0.493526 13.4517 0.375 13.7501 0.375C14.0452 0.376243 14.328 0.493413 14.5376 0.70125L22.4126 8.57625C22.518 8.68083 22.6017 8.80526 22.6588 8.94235C22.716 9.07944 22.7454 9.22649 22.7454 9.375C22.7454 9.52351 22.716 9.67056 22.6588 9.80765C22.6017 9.94474 22.518 10.0692 22.4126 10.1737L14.5376 18.0487C14.3797 18.2036 14.1796 18.3084 13.9624 18.3501C13.7452 18.3919 13.5206 18.3687 13.3165 18.2834C13.1124 18.1982 12.938 18.0547 12.8151 17.8709C12.6921 17.6871 12.626 17.4711 12.6251 17.25V13.7625H11.6688C9.89143 13.736 8.12954 14.0966 6.50546 14.8193C4.88138 15.5419 3.43402 16.6094 2.26384 17.9475C2.12281 18.1352 1.92658 18.2742 1.70265 18.3448C1.47871 18.4154 1.23829 18.4141 1.01509 18.3412C0.787943 18.2646 0.591223 18.1174 0.453611 17.9211C0.316 17.7248 0.244694 17.4897 0.250086 17.25C0.250086 6.99 9.34009 5.235 12.6251 4.93125ZM11.6688 11.49C12.4213 11.4876 13.173 11.5365 13.9188 11.6363C14.1852 11.6767 14.4282 11.8113 14.6036 12.0157C14.7791 12.2201 14.8754 12.4806 14.8751 12.75V14.5387L20.0276 9.375L14.8751 4.21125V6C14.8751 6.29837 14.7566 6.58452 14.5456 6.7955C14.3346 7.00647 14.0485 7.125 13.7501 7.125C12.7263 7.125 4.62634 7.35 2.87134 14.3588C5.41868 12.4806 8.50402 11.4745 11.6688 11.49Z" fill="#6C6B6B"/>
</svg>
