<svg width="19" height="17" viewBox="0 0 19 17" fill="none" xmlns="http://www.w3.org/2000/svg">
<path d="M15.71 0.450012C17.3039 0.450012 18.608 1.81506 18.6954 3.53431L18.7 3.72061V13.2794C18.7 15.024 17.4523 16.4488 15.8791 16.5454L15.71 16.55H3.29005C1.69615 16.55 0.392049 15.185 0.304649 13.4657L0.300049 13.2794V3.72061C0.300049 1.97606 1.5478 0.551212 3.11985 0.454612L3.29005 0.450012H15.71ZM15.5375 1.60001H3.46255C2.39765 1.60001 1.52595 2.51196 1.45465 3.66656L1.45005 3.81836V13.1817C1.45005 14.3558 2.27805 15.3172 3.32455 15.3954L3.46255 15.4H15.5375C16.6024 15.4 17.4741 14.4881 17.5454 13.3346L17.55 13.1805V3.81951C17.55 2.64536 16.722 1.68396 15.6755 1.60576L15.5375 1.60001ZM5.8787 5.05231C6.5917 5.05231 7.1989 5.16386 7.69685 5.39616C8.0039 5.53876 8.12695 5.88376 7.97285 6.16781C7.8908 6.30705 7.75957 6.41049 7.60502 6.45775C7.45048 6.505 7.28383 6.49265 7.13795 6.42311C6.82975 6.27936 6.41115 6.20231 5.8787 6.20231C4.6988 6.20231 3.8432 7.15911 3.8432 8.50231C3.8432 9.78916 4.77815 10.8 5.8787 10.8C6.56525 10.8 7.031 10.3964 7.0977 10.0261L7.1069 9.93406V9.07616L6.67105 9.07501C6.32835 9.07501 6.05005 8.81741 6.05005 8.50001C6.05005 8.21826 6.2697 7.98251 6.5595 7.93421L6.6722 7.92501L7.7279 7.92616C7.86864 7.92199 8.00649 7.96667 8.11802 8.05263C8.22955 8.13858 8.30788 8.2605 8.3397 8.39766L8.35005 8.50116V9.93406C8.35005 10.9426 7.33115 11.95 5.8787 11.95C4.04445 11.95 2.60005 10.3883 2.60005 8.50116C2.60005 6.56801 3.9536 5.05231 5.8787 5.05231ZM10.65 5.05001C10.7846 5.04997 10.915 5.09713 11.0183 5.18329C11.1217 5.26944 11.1916 5.38913 11.2158 5.52151L11.225 5.62501V11.375C11.2253 11.5187 11.1718 11.6573 11.075 11.7635C10.9782 11.8696 10.8451 11.9357 10.702 11.9487C10.5589 11.9617 10.4161 11.9206 10.3018 11.8336C10.1875 11.7466 10.1098 11.6199 10.0842 11.4785L10.075 11.375V5.62501C10.075 5.47251 10.1356 5.32626 10.2435 5.21843C10.3513 5.11059 10.4975 5.05001 10.65 5.05001ZM15.825 5.05001C15.9687 5.04975 16.1073 5.10329 16.2135 5.2001C16.3197 5.2969 16.3858 5.42996 16.3988 5.57306C16.4117 5.71616 16.3707 5.85893 16.2836 5.97327C16.1966 6.0876 16.0699 6.16521 15.9285 6.19081L15.825 6.20001H14.1V8.50001H15.825C15.9687 8.49975 16.1073 8.55329 16.2135 8.6501C16.3197 8.7469 16.3858 8.87996 16.3988 9.02306C16.4117 9.16616 16.3707 9.30893 16.2836 9.42327C16.1966 9.5376 16.0699 9.61521 15.9285 9.64081L15.825 9.65001H14.1V11.375C14.1003 11.5187 14.0468 11.6573 13.95 11.7635C13.8532 11.8696 13.7201 11.9357 13.577 11.9487C13.4339 11.9617 13.2911 11.9206 13.1768 11.8336C13.0625 11.7466 12.9848 11.6199 12.9592 11.4785L12.95 11.375V5.62501C12.95 5.47251 13.0106 5.32626 13.1185 5.21843C13.2263 5.11059 13.3725 5.05001 13.525 5.05001H15.825Z" fill="#116530"/>
</svg>
