<svg width="523" height="27" viewBox="0 0 523 27" fill="none" xmlns="http://www.w3.org/2000/svg">
<g clip-path="url(#clip0_59_123)">
<path d="M10.5 1.3125C4.70043 1.3125 3.65863e-05 5.13105 3.65863e-05 9.84375C3.65863e-05 11.7961 0.816248 13.5844 2.16976 15.024C1.55863 16.64 0.287146 18.01 0.266638 18.0264C-0.00406498 18.3135 -0.0778931 18.7318 0.0779663 19.0928C0.233826 19.4537 0.590662 19.6875 0.984412 19.6875C3.50687 19.6875 5.49613 18.6334 6.68969 17.7885C7.87504 18.1617 9.15472 18.375 10.5 18.375C16.2996 18.375 21 14.5564 21 9.84375C21 5.13105 16.2996 1.3125 10.5 1.3125ZM10.5 16.4062C9.40492 16.4062 8.32211 16.2381 7.28441 15.91L6.35336 15.6146L5.55355 16.1807C4.96703 16.5949 4.16312 17.0584 3.19515 17.3701C3.49457 16.8738 3.78578 16.316 4.01136 15.7213L4.44613 14.5688L3.60121 13.6746C2.85883 12.883 1.96879 11.5746 1.96879 9.84375C1.96879 6.22617 5.79554 3.28125 10.5 3.28125C15.2045 3.28125 19.0313 6.22617 19.0313 9.84375C19.0313 13.4613 15.2045 16.4062 10.5 16.4062Z" fill="#6C6B6B"/>
</g>
<path d="M183.833 8.33337H177.987L179.157 4.82608C179.368 4.19275 179.261 3.49067 178.871 2.949C178.48 2.40733 177.847 2.08337 177.179 2.08337H175.5C175.191 2.08337 174.898 2.22087 174.699 2.45837L169.803 8.33337H167.167C166.018 8.33337 165.083 9.26775 165.083 10.4167V19.7917C165.083 20.9407 166.018 21.875 167.167 21.875H181.028C181.452 21.8736 181.865 21.7436 182.214 21.5022C182.562 21.2608 182.829 20.9193 182.979 20.523L185.851 12.8657C185.895 12.7487 185.917 12.6249 185.917 12.5V10.4167C185.917 9.26775 184.982 8.33337 183.833 8.33337ZM167.167 10.4167H169.25V19.7917H167.167V10.4167ZM183.833 12.3115L181.028 19.7917H171.333V9.75212L175.987 4.16671H177.181L175.554 9.04483C175.501 9.20141 175.487 9.36832 175.511 9.53173C175.536 9.69514 175.599 9.85034 175.695 9.98446C175.792 10.1186 175.919 10.2277 176.066 10.3029C176.213 10.3781 176.376 10.4171 176.542 10.4167H183.833V12.3115Z" fill="#6C6B6B"/>
<path d="M348.5 2H336.5C334.57 2 333 3.57 333 5.5V22L340 18.5L347 22V13H352V5.5C352 3.57 350.43 2 348.5 2ZM345 18.764L340 16.264L335 18.764V5.5C335 4.673 335.673 4 336.5 4H345.352C345.123 4.46708 345.003 4.97986 345 5.5V18.764ZM350 11H347V5.5C347 4.673 347.673 4 348.5 4C349.327 4 350 4.673 350 5.5V11Z" fill="#6C6B6B"/>
<path d="M341 7H339V9H337V11H339V13H341V11H343V9H341V7Z" fill="#6C6B6B"/>
<path d="M510.625 7.93125V4.5C510.625 4.20163 510.744 3.91548 510.955 3.7045C511.166 3.49353 511.452 3.375 511.75 3.375C512.045 3.37624 512.328 3.49341 512.538 3.70125L520.413 11.5763C520.518 11.6808 520.602 11.8053 520.659 11.9424C520.716 12.0794 520.745 12.2265 520.745 12.375C520.745 12.5235 520.716 12.6706 520.659 12.8076C520.602 12.9447 520.518 13.0692 520.413 13.1737L512.538 21.0487C512.38 21.2036 512.18 21.3084 511.962 21.3501C511.745 21.3919 511.521 21.3687 511.317 21.2834C511.112 21.1982 510.938 21.0547 510.815 20.8709C510.692 20.6871 510.626 20.4711 510.625 20.25V16.7625H509.669C507.891 16.736 506.13 17.0966 504.505 17.8193C502.881 18.5419 501.434 19.6094 500.264 20.9475C500.123 21.1352 499.927 21.2742 499.703 21.3448C499.479 21.4154 499.238 21.4141 499.015 21.3412C498.788 21.2646 498.591 21.1174 498.454 20.9211C498.316 20.7248 498.245 20.4897 498.25 20.25C498.25 9.99 507.34 8.235 510.625 7.93125ZM509.669 14.49C510.421 14.4876 511.173 14.5365 511.919 14.6363C512.185 14.6767 512.428 14.8113 512.604 15.0157C512.779 15.2201 512.875 15.4806 512.875 15.75V17.5387L518.028 12.375L512.875 7.21125V9C512.875 9.29837 512.757 9.58452 512.546 9.7955C512.335 10.0065 512.048 10.125 511.75 10.125C510.726 10.125 502.626 10.35 500.871 17.3588C503.419 15.4806 506.504 14.4745 509.669 14.49Z" fill="#6C6B6B"/>
<defs>
<clipPath id="clip0_59_123">
<rect width="21" height="21" fill="white"/>
</clipPath>
</defs>
</svg>
