<svg width="132" height="23" viewBox="0 0 132 23" fill="none" xmlns="http://www.w3.org/2000/svg">
<path d="M55.71 3.45001C57.3039 3.45001 58.608 4.81506 58.6954 6.53431L58.7 6.72061V16.2794C58.7 18.024 57.4523 19.4488 55.8791 19.5454L55.71 19.55H43.29C41.6961 19.55 40.392 18.185 40.3046 16.4657L40.3 16.2794V6.72061C40.3 4.97606 41.5478 3.55121 43.1198 3.45461L43.29 3.45001H55.71ZM55.5375 4.60001H43.4625C42.3976 4.60001 41.5259 5.51196 41.4546 6.66656L41.45 6.81836V16.1817C41.45 17.3558 42.278 18.3172 43.3245 18.3954L43.4625 18.4H55.5375C56.6024 18.4 57.4741 17.4881 57.5454 16.3346L57.55 16.1805V6.81951C57.55 5.64536 56.722 4.68396 55.6755 4.60576L55.5375 4.60001ZM45.8787 8.05231C46.5917 8.05231 47.1989 8.16386 47.6968 8.39616C48.0039 8.53876 48.1269 8.88376 47.9728 9.16781C47.8908 9.30705 47.7596 9.41049 47.605 9.45775C47.4505 9.505 47.2838 9.49265 47.1379 9.42311C46.8297 9.27936 46.4111 9.20231 45.8787 9.20231C44.6988 9.20231 43.8432 10.1591 43.8432 11.5023C43.8432 12.7892 44.7781 13.8 45.8787 13.8C46.5652 13.8 47.031 13.3964 47.0977 13.0261L47.1069 12.9341V12.0762L46.671 12.075C46.3283 12.075 46.05 11.8174 46.05 11.5C46.05 11.2183 46.2697 10.9825 46.5595 10.9342L46.6722 10.925L47.7279 10.9262C47.8686 10.922 48.0065 10.9667 48.118 11.0526C48.2296 11.1386 48.3079 11.2605 48.3397 11.3977L48.35 11.5012V12.9341C48.35 13.9426 47.3311 14.95 45.8787 14.95C44.0444 14.95 42.6 13.3883 42.6 11.5012C42.6 9.56801 43.9536 8.05231 45.8787 8.05231ZM50.65 8.05001C50.7846 8.04997 50.915 8.09713 51.0183 8.18329C51.1217 8.26944 51.1916 8.38913 51.2158 8.52151L51.225 8.62501V14.375C51.2253 14.5187 51.1718 14.6573 51.075 14.7635C50.9782 14.8696 50.8451 14.9357 50.702 14.9487C50.5589 14.9617 50.4161 14.9206 50.3018 14.8336C50.1875 14.7466 50.1098 14.6199 50.0842 14.4785L50.075 14.375V8.62501C50.075 8.47251 50.1356 8.32626 50.2435 8.21843C50.3513 8.11059 50.4975 8.05001 50.65 8.05001ZM55.825 8.05001C55.9687 8.04975 56.1073 8.10329 56.2135 8.2001C56.3197 8.2969 56.3858 8.42996 56.3988 8.57306C56.4117 8.71616 56.3707 8.85893 56.2836 8.97327C56.1966 9.0876 56.0699 9.16521 55.9285 9.19081L55.825 9.20001H54.1V11.5H55.825C55.9687 11.4997 56.1073 11.5533 56.2135 11.6501C56.3197 11.7469 56.3858 11.88 56.3988 12.0231C56.4117 12.1662 56.3707 12.3089 56.2836 12.4233C56.1966 12.5376 56.0699 12.6152 55.9285 12.6408L55.825 12.65H54.1V14.375C54.1003 14.5187 54.0468 14.6573 53.95 14.7635C53.8532 14.8696 53.7201 14.9357 53.577 14.9487C53.4339 14.9617 53.2911 14.9206 53.1768 14.8336C53.0625 14.7466 52.9848 14.6199 52.9592 14.4785L52.95 14.375V8.62501C52.95 8.47251 53.0106 8.32626 53.1185 8.21843C53.2263 8.11059 53.3725 8.05001 53.525 8.05001H55.825Z" fill="#116530"/>
<path d="M13.0625 10.625C13.4704 10.625 13.8692 10.504 14.2084 10.2774C14.5475 10.0508 14.8119 9.72866 14.968 9.35179C15.1241 8.97491 15.165 8.56021 15.0854 8.16013C15.0058 7.76004 14.8094 7.39254 14.5209 7.10409C14.2325 6.81565 13.865 6.61921 13.4649 6.53963C13.0648 6.46005 12.6501 6.50089 12.2732 6.657C11.8963 6.81311 11.5742 7.07746 11.3476 7.41664C11.121 7.75581 11 8.15458 11 8.5625C11 9.10951 11.2173 9.63412 11.6041 10.0209C11.9909 10.4077 12.5155 10.625 13.0625 10.625ZM13.0625 7.875C13.1985 7.875 13.3314 7.91532 13.4445 7.99087C13.5575 8.06641 13.6456 8.17378 13.6977 8.29941C13.7497 8.42503 13.7633 8.56326 13.7368 8.69663C13.7103 8.82999 13.6448 8.95249 13.5486 9.04864C13.4525 9.14479 13.33 9.21026 13.1966 9.23679C13.0633 9.26332 12.925 9.2497 12.7994 9.19767C12.6738 9.14563 12.5664 9.05751 12.4909 8.94446C12.4153 8.8314 12.375 8.69848 12.375 8.5625C12.375 8.38016 12.4474 8.2053 12.5764 8.07637C12.7053 7.94743 12.8802 7.875 13.0625 7.875Z" fill="#116530"/>
<path d="M17.875 3.75H4.125C3.76033 3.75 3.41059 3.89487 3.15273 4.15273C2.89487 4.41059 2.75 4.76033 2.75 5.125V18.875C2.75 19.2397 2.89487 19.5894 3.15273 19.8473C3.41059 20.1051 3.76033 20.25 4.125 20.25H17.875C18.2397 20.25 18.5894 20.1051 18.8473 19.8473C19.1051 19.5894 19.25 19.2397 19.25 18.875V5.125C19.25 4.76033 19.1051 4.41059 18.8473 4.15273C18.5894 3.89487 18.2397 3.75 17.875 3.75ZM17.875 18.875H4.125V14.75L7.5625 11.3125L11.4056 15.1556C11.6632 15.4117 12.0117 15.5555 12.375 15.5555C12.7383 15.5555 13.0868 15.4117 13.3444 15.1556L14.4375 14.0625L17.875 17.5V18.875ZM17.875 15.5544L15.4069 13.0863C15.1493 12.8302 14.8008 12.6864 14.4375 12.6864C14.0742 12.6864 13.7257 12.8302 13.4681 13.0863L12.375 14.1794L8.53187 10.3362C8.27425 10.0802 7.92576 9.93641 7.5625 9.93641C7.19924 9.93641 6.85075 10.0802 6.59313 10.3362L4.125 12.8044V5.125H17.875V15.5544Z" fill="#116530"/>
<path fill-rule="evenodd" clip-rule="evenodd" d="M92.8334 5.33335H81.1667C80.9457 5.33335 80.7338 5.42115 80.5775 5.57743C80.4212 5.73371 80.3334 5.94567 80.3334 6.16669V17.8334C80.3334 18.0544 80.4212 18.2663 80.5775 18.4226C80.7338 18.5789 80.9457 18.6667 81.1667 18.6667H92.8334C93.0544 18.6667 93.2664 18.5789 93.4227 18.4226C93.579 18.2663 93.6667 18.0544 93.6667 17.8334V6.16669C93.6667 5.94567 93.579 5.73371 93.4227 5.57743C93.2664 5.42115 93.0544 5.33335 92.8334 5.33335ZM81.1667 3.66669C80.5037 3.66669 79.8678 3.93008 79.399 4.39892C78.9301 4.86776 78.6667 5.50365 78.6667 6.16669V17.8334C78.6667 18.4964 78.9301 19.1323 79.399 19.6011C79.8678 20.07 80.5037 20.3334 81.1667 20.3334H92.8334C93.4965 20.3334 94.1323 20.07 94.6012 19.6011C95.07 19.1323 95.3334 18.4964 95.3334 17.8334V6.16669C95.3334 5.50365 95.07 4.86776 94.6012 4.39892C94.1323 3.93008 93.4965 3.66669 92.8334 3.66669H81.1667Z" fill="#116530"/>
<path d="M86.1667 7.83337H87.8334V16.1667H86.1667V7.83337Z" fill="#116530"/>
<path d="M89.5 12.8334H91.1667V16.1667H89.5V12.8334Z" fill="#116530"/>
<path d="M82.8335 10.3334H84.5002V16.1667H82.8335V10.3334Z" fill="#116530"/>
<path d="M120.125 12.9062C120.44 12.9062 120.742 12.7811 120.965 12.5584C121.187 12.3357 121.312 12.0337 121.312 11.7188C121.312 11.4038 121.187 11.1018 120.965 10.8791C120.742 10.6564 120.44 10.5312 120.125 10.5312C119.81 10.5312 119.508 10.6564 119.285 10.8791C119.063 11.1018 118.938 11.4038 118.938 11.7188C118.938 12.0337 119.063 12.3357 119.285 12.5584C119.508 12.7811 119.81 12.9062 120.125 12.9062ZM126.062 11.7188C126.062 12.0337 125.937 12.3357 125.715 12.5584C125.492 12.7811 125.19 12.9062 124.875 12.9062C124.56 12.9062 124.258 12.7811 124.035 12.5584C123.813 12.3357 123.688 12.0337 123.688 11.7188C123.688 11.4038 123.813 11.1018 124.035 10.8791C124.258 10.6564 124.56 10.5312 124.875 10.5312C125.19 10.5312 125.492 10.6564 125.715 10.8791C125.937 11.1018 126.062 11.4038 126.062 11.7188ZM118.672 15.3442C118.812 15.2741 118.974 15.2623 119.123 15.3112C119.272 15.3602 119.395 15.4659 119.467 15.6054L119.468 15.609L119.489 15.6434C119.509 15.6773 119.544 15.7301 119.594 15.7972C119.694 15.9308 119.855 16.1155 120.088 16.3019C120.547 16.6688 121.308 17.0625 122.5 17.0625C123.692 17.0625 124.453 16.6688 124.912 16.3025C125.146 16.1155 125.307 15.9308 125.406 15.7972C125.452 15.737 125.494 15.6741 125.532 15.609L125.534 15.6048C125.606 15.4654 125.73 15.3599 125.879 15.3114C126.028 15.2629 126.19 15.2754 126.33 15.3462C126.47 15.4169 126.576 15.5401 126.626 15.6889C126.675 15.8377 126.664 16 126.594 16.1404V16.141L126.593 16.1422V16.1434L126.59 16.1469L126.586 16.1558C126.567 16.1912 126.547 16.2259 126.526 16.2598C126.488 16.3233 126.432 16.4094 126.357 16.5091C126.154 16.7777 125.918 17.0197 125.654 17.2293C125 17.753 123.98 18.25 122.5 18.25C121.02 18.25 120 17.753 119.346 17.2288C119.083 17.0195 118.847 16.7779 118.644 16.5097C118.559 16.3971 118.483 16.2788 118.414 16.1558L118.41 16.1469L118.408 16.1434L118.407 16.1416L118.407 16.1404C118.336 15.9996 118.325 15.8367 118.375 15.6874C118.424 15.5381 118.531 15.4146 118.672 15.3442ZM122.5 5.1875C117.909 5.1875 114.188 8.90913 114.188 13.5C114.188 18.0909 117.909 21.8125 122.5 21.8125C127.091 21.8125 130.812 18.0909 130.812 13.5C130.812 8.90913 127.091 5.1875 122.5 5.1875ZM115.375 13.5C115.375 9.56522 118.565 6.375 122.5 6.375C126.435 6.375 129.625 9.56522 129.625 13.5C129.625 17.4348 126.435 20.625 122.5 20.625C118.565 20.625 115.375 17.4348 115.375 13.5Z" fill="#116530"/>
</svg>
