<svg width="18" height="18" viewBox="0 0 18 18" fill="none" xmlns="http://www.w3.org/2000/svg">
<path d="M15.875 0.75H2.125C1.76033 0.75 1.41059 0.894866 1.15273 1.15273C0.894866 1.41059 0.75 1.76033 0.75 2.125V15.875C0.75 16.2397 0.894866 16.5894 1.15273 16.8473C1.41059 17.1051 1.76033 17.25 2.125 17.25H15.875C16.2397 17.25 16.5894 17.1051 16.8473 16.8473C17.1051 16.5894 17.25 16.2397 17.25 15.875V2.125C17.25 1.76033 17.1051 1.41059 16.8473 1.15273C16.5894 0.894866 16.2397 0.75 15.875 0.75ZM15.875 15.875H2.125V11.75L5.5625 8.3125L9.40563 12.1556C9.66325 12.4117 10.0117 12.5555 10.375 12.5555C10.7383 12.5555 11.0868 12.4117 11.3444 12.1556L12.4375 11.0625L15.875 14.5V15.875ZM15.875 12.5544L13.4069 10.0863C13.1493 9.83016 12.8008 9.68641 12.4375 9.68641C12.0742 9.68641 11.7257 9.83016 11.4681 10.0863L10.375 11.1794L6.53187 7.33625C6.27425 7.08015 5.92576 6.93641 5.5625 6.93641C5.19924 6.93641 4.85075 7.08015 4.59313 7.33625L2.125 9.80437V2.125H15.875V12.5544Z" fill="#116530"/>
</svg>
