<svg width="21" height="20" viewBox="0 0 21 20" fill="none" xmlns="http://www.w3.org/2000/svg">
<path d="M18.8333 6.33331H12.9874L14.1572 2.82602C14.3676 2.19269 14.2614 1.4906 13.8708 0.948938C13.4801 0.407271 12.8468 0.083313 12.1791 0.083313H10.4999C10.1905 0.083313 9.89783 0.220813 9.69888 0.458313L4.80304 6.33331H2.16659C1.01763 6.33331 0.083252 7.26769 0.083252 8.41665V17.7916C0.083252 18.9406 1.01763 19.875 2.16659 19.875H16.028C16.4519 19.8736 16.8653 19.7436 17.2137 19.5021C17.5621 19.2607 17.8289 18.9193 17.9791 18.5229L20.851 10.8656C20.8946 10.7486 20.9168 10.6248 20.9166 10.5V8.41665C20.9166 7.26769 19.9822 6.33331 18.8333 6.33331ZM2.16659 8.41665H4.24992V17.7916H2.16659V8.41665ZM18.8333 10.3114L16.028 17.7916H6.33325V7.75206L10.9874 2.16665H12.1812L10.5541 7.04477C10.5013 7.20135 10.4865 7.36826 10.5111 7.53167C10.5357 7.69508 10.5989 7.85028 10.6954 7.9844C10.7919 8.11851 10.9191 8.22768 11.0662 8.30285C11.2134 8.37803 11.3763 8.41704 11.5416 8.41665H18.8333V10.3114Z" fill="#6C6B6B"/>
</svg>
