<svg width="27" height="8" viewBox="0 0 27 8" fill="none" xmlns="http://www.w3.org/2000/svg">
<path d="M3.98438 0.78125C3.56784 0.78125 3.15538 0.863293 2.77055 1.02269C2.38572 1.1821 2.03606 1.41574 1.74152 1.71027C1.44698 2.00481 1.21335 2.35447 1.05394 2.7393C0.894543 3.12413 0.8125 3.53659 0.8125 3.95312C0.8125 4.36966 0.894543 4.78212 1.05394 5.16695C1.21335 5.55178 1.44698 5.90144 1.74152 6.19598C2.03606 6.49052 2.38572 6.72415 2.77055 6.88355C3.15538 7.04296 3.56784 7.125 3.98438 7.125C4.82561 7.125 5.63239 6.79082 6.22723 6.19598C6.82207 5.60114 7.15625 4.79436 7.15625 3.95312C7.15625 3.11189 6.82207 2.30511 6.22723 1.71027C5.63239 1.11543 4.82561 0.78125 3.98438 0.78125ZM3.98438 2.59375C4.3449 2.59375 4.69067 2.73697 4.9456 2.9919C5.20053 3.24683 5.34375 3.5926 5.34375 3.95312C5.34375 4.31365 5.20053 4.65942 4.9456 4.91435C4.69067 5.16928 4.3449 5.3125 3.98438 5.3125C3.62385 5.3125 3.27808 5.16928 3.02315 4.91435C2.76822 4.65942 2.625 4.31365 2.625 3.95312C2.625 3.5926 2.76822 3.24683 3.02315 2.9919C3.27808 2.73697 3.62385 2.59375 3.98438 2.59375ZM13.5 0.78125C13.9165 0.78125 14.329 0.863293 14.7138 1.02269C15.0987 1.1821 15.4483 1.41574 15.7429 1.71027C16.0374 2.00481 16.271 2.35447 16.4304 2.7393C16.5898 3.12413 16.6719 3.53659 16.6719 3.95312C16.6719 4.36966 16.5898 4.78212 16.4304 5.16695C16.271 5.55178 16.0374 5.90144 15.7429 6.19598C15.4483 6.49052 15.0987 6.72415 14.7138 6.88355C14.329 7.04296 13.9165 7.125 13.5 7.125C12.6588 7.125 11.852 6.79082 11.2571 6.19598C10.6623 5.60114 10.3281 4.79436 10.3281 3.95312C10.3281 3.11189 10.6623 2.30511 11.2571 1.71027C11.852 1.11543 12.6588 0.78125 13.5 0.78125ZM13.5 2.59375C13.1395 2.59375 12.7937 2.73697 12.5388 2.9919C12.2838 3.24683 12.1406 3.5926 12.1406 3.95312C12.1406 4.31365 12.2838 4.65942 12.5388 4.91435C12.7937 5.16928 13.1395 5.3125 13.5 5.3125C13.8605 5.3125 14.2063 5.16928 14.4612 4.91435C14.7162 4.65942 14.8594 4.31365 14.8594 3.95312C14.8594 3.5926 14.7162 3.24683 14.4612 2.9919C14.2063 2.73697 13.8605 2.59375 13.5 2.59375ZM23.0156 0.78125C23.4322 0.78125 23.8446 0.863293 24.2294 1.02269C24.6143 1.1821 24.9639 1.41574 25.2585 1.71027C25.553 2.00481 25.7867 2.35447 25.9461 2.7393C26.1055 3.12413 26.1875 3.53659 26.1875 3.95312C26.1875 4.36966 26.1055 4.78212 25.9461 5.16695C25.7867 5.55178 25.553 5.90144 25.2585 6.19598C24.9639 6.49052 24.6143 6.72415 24.2294 6.88355C23.8446 7.04296 23.4322 7.125 23.0156 7.125C22.1744 7.125 21.3676 6.79082 20.7728 6.19598C20.1779 5.60114 19.8438 4.79436 19.8438 3.95312C19.8438 3.11189 20.1779 2.30511 20.7728 1.71027C21.3676 1.11543 22.1744 0.78125 23.0156 0.78125ZM23.0156 2.59375C22.6551 2.59375 22.3093 2.73697 22.0544 2.9919C21.7995 3.24683 21.6562 3.5926 21.6562 3.95312C21.6562 4.31365 21.7995 4.65942 22.0544 4.91435C22.3093 5.16928 22.6551 5.3125 23.0156 5.3125C23.3762 5.3125 23.7219 5.16928 23.9768 4.91435C24.2318 4.65942 24.375 4.31365 24.375 3.95312C24.375 3.5926 24.2318 3.24683 23.9768 2.9919C23.7219 2.73697 23.3762 2.59375 23.0156 2.59375Z" fill="#6C6B6B"/>
</svg>
