<svg width="24" height="32" viewBox="0 0 24 32" fill="none" xmlns="http://www.w3.org/2000/svg">
<path d="M4 16.95C4 16.698 4.10536 16.4564 4.29289 16.2782C4.48043 16.1001 4.73478 16 5 16C5.26522 16 5.51957 16.1001 5.70711 16.2782C5.89464 16.4564 6 16.698 6 16.95C6 17.2019 5.89464 17.4436 5.70711 17.6217C5.51957 17.7999 5.26522 17.9 5 17.9C4.73478 17.9 4.48043 17.7999 4.29289 17.6217C4.10536 17.4436 4 17.2019 4 16.95ZM5 19.8C4.73478 19.8 4.48043 19.9001 4.29289 20.0782C4.10536 20.2564 4 20.498 4 20.75C4 21.0019 4.10536 21.2436 4.29289 21.4217C4.48043 21.5999 4.73478 21.7 5 21.7C5.26522 21.7 5.51957 21.5999 5.70711 21.4217C5.89464 21.2436 6 21.0019 6 20.75C6 20.498 5.89464 20.2564 5.70711 20.0782C5.51957 19.9001 5.26522 19.8 5 19.8ZM4 24.55C4 24.298 4.10536 24.0564 4.29289 23.8782C4.48043 23.7001 4.73478 23.6 5 23.6C5.26522 23.6 5.51957 23.7001 5.70711 23.8782C5.89464 24.0564 6 24.298 6 24.55C6 24.8019 5.89464 25.0436 5.70711 25.2217C5.51957 25.3999 5.26522 25.5 5 25.5C4.73478 25.5 4.48043 25.3999 4.29289 25.2217C4.10536 25.0436 4 24.8019 4 24.55ZM9 16C8.73478 16 8.48043 16.1001 8.29289 16.2782C8.10535 16.4564 8 16.698 8 16.95C8 17.2019 8.10535 17.4436 8.29289 17.6217C8.48043 17.7999 8.73478 17.9 9 17.9H19C19.2652 17.9 19.5196 17.7999 19.7071 17.6217C19.8946 17.4436 20 17.2019 20 16.95C20 16.698 19.8946 16.4564 19.7071 16.2782C19.5196 16.1001 19.2652 16 19 16H9ZM8 20.75C8 20.498 8.10535 20.2564 8.29289 20.0782C8.48043 19.9001 8.73478 19.8 9 19.8H19C19.2652 19.8 19.5196 19.9001 19.7071 20.0782C19.8946 20.2564 20 20.498 20 20.75C20 21.0019 19.8946 21.2436 19.7071 21.4217C19.5196 21.5999 19.2652 21.7 19 21.7H9C8.73478 21.7 8.48043 21.5999 8.29289 21.4217C8.10535 21.2436 8 21.0019 8 20.75ZM9 23.6C8.73478 23.6 8.48043 23.7001 8.29289 23.8782C8.10535 24.0564 8 24.298 8 24.55C8 24.8019 8.10535 25.0436 8.29289 25.2217C8.48043 25.3999 8.73478 25.5 9 25.5H19C19.2652 25.5 19.5196 25.3999 19.7071 25.2217C19.8946 25.0436 20 24.8019 20 24.55C20 24.298 19.8946 24.0564 19.7071 23.8782C19.5196 23.7001 19.2652 23.6 19 23.6H9ZM4 0.799988C2.93913 0.799988 1.92172 1.20034 1.17157 1.91298C0.421427 2.62562 0 3.59217 0 4.59999V27.4C0 28.4078 0.421427 29.3744 1.17157 30.087C1.92172 30.7996 2.93913 31.2 4 31.2H20C21.0609 31.2 22.0783 30.7996 22.8284 30.087C23.5786 29.3744 24 28.4078 24 27.4V11.0866C23.9993 10.331 23.6828 9.60655 23.12 9.07259L15.292 1.63409C14.7296 1.10015 13.9671 0.800149 13.172 0.799988H4ZM2 4.59999C2 4.09608 2.21071 3.6128 2.58579 3.25648C2.96086 2.90017 3.46957 2.69999 4 2.69999H12V9.34999C12 10.1059 12.3161 10.8308 12.8787 11.3652C13.4413 11.8997 14.2043 12.2 15 12.2H22V27.4C22 27.9039 21.7893 28.3872 21.4142 28.7435C21.0391 29.0998 20.5304 29.3 20 29.3H4C3.46957 29.3 2.96086 29.0998 2.58579 28.7435C2.21071 28.3872 2 27.9039 2 27.4V4.59999ZM21.586 10.3H15C14.7348 10.3 14.4804 10.1999 14.2929 10.0217C14.1054 9.84358 14 9.60194 14 9.34999V3.09329L21.586 10.3Z" fill="#6C6B6B"/>
</svg>
