<svg width="30" height="33" viewBox="0 0 30 33" fill="none" xmlns="http://www.w3.org/2000/svg">
<path d="M29.2954 20.7046L26.25 17.6593V13.625C26.2465 10.8371 25.2094 8.14945 23.3392 6.08185C21.469 4.01426 18.8986 2.71355 16.125 2.43125V0.125H13.875V2.43125C11.1014 2.71355 8.53098 4.01426 6.66079 6.08185C4.7906 8.14945 3.75349 10.8371 3.75 13.625V17.6593L0.704625 20.7046C0.493632 20.9156 0.375064 21.2017 0.375 21.5V24.875C0.375 25.1734 0.493526 25.4595 0.704505 25.6705C0.915483 25.8815 1.20163 26 1.5 26H9.375V26.8741C9.35053 28.3013 9.85358 29.6874 10.7878 30.7667C11.7219 31.846 13.0215 32.5426 14.4375 32.723C15.2196 32.8006 16.0092 32.7136 16.7557 32.4676C17.5021 32.2217 18.1888 31.8222 18.7716 31.295C19.3544 30.7677 19.8204 30.1243 20.1396 29.4061C20.4588 28.6879 20.6241 27.9109 20.625 27.125V26H28.5C28.7984 26 29.0845 25.8815 29.2955 25.6705C29.5065 25.4595 29.625 25.1734 29.625 24.875V21.5C29.6249 21.2017 29.5064 20.9156 29.2954 20.7046ZM18.375 27.125C18.375 28.0201 18.0194 28.8786 17.3865 29.5115C16.7536 30.1444 15.8951 30.5 15 30.5C14.1049 30.5 13.2464 30.1444 12.6135 29.5115C11.9806 28.8786 11.625 28.0201 11.625 27.125V26H18.375V27.125ZM27.375 23.75H2.625V21.9657L5.67037 18.9204C5.88137 18.7094 5.99994 18.4233 6 18.125V13.625C6 11.2381 6.94821 8.94887 8.63604 7.26104C10.3239 5.57321 12.6131 4.625 15 4.625C17.3869 4.625 19.6761 5.57321 21.364 7.26104C23.0518 8.94887 24 11.2381 24 13.625V18.125C24.0001 18.4233 24.1186 18.7094 24.3296 18.9204L27.375 21.9657V23.75Z" fill="#6C6B6B"/>
</svg>
