<svg width="21" height="20" viewBox="0 0 21 20" fill="none" xmlns="http://www.w3.org/2000/svg">
<path d="M18.8333 6.33325H12.9874L14.1572 2.82596C14.3676 2.19263 14.2614 1.49054 13.8708 0.948877C13.4801 0.40721 12.8468 0.083252 12.1791 0.083252H10.4999C10.1905 0.083252 9.89783 0.220752 9.69888 0.458252L4.80304 6.33325H2.16659C1.01763 6.33325 0.083252 7.26763 0.083252 8.41658V17.7916C0.083252 18.9405 1.01763 19.8749 2.16659 19.8749H16.028C16.4519 19.8735 16.8653 19.7435 17.2137 19.5021C17.5621 19.2607 17.8289 18.9192 17.9791 18.5228L20.851 10.8655C20.8946 10.7486 20.9168 10.6247 20.9166 10.4999V8.41658C20.9166 7.26763 19.9822 6.33325 18.8333 6.33325ZM2.16659 8.41658H4.24992V17.7916H2.16659V8.41658ZM18.8333 10.3114L16.028 17.7916H6.33325V7.752L10.9874 2.16658H12.1812L10.5541 7.04471C10.5013 7.20129 10.4865 7.3682 10.5111 7.53161C10.5357 7.69502 10.5989 7.85022 10.6954 7.98434C10.7919 8.11845 10.9191 8.22762 11.0662 8.30279C11.2134 8.37797 11.3763 8.41697 11.5416 8.41658H18.8333V10.3114Z" fill="white"/>
</svg>
