<svg width="44" height="44" viewBox="0 0 44 44" fill="none" xmlns="http://www.w3.org/2000/svg">
<path fill-rule="evenodd" clip-rule="evenodd" d="M22 38.5C31.1125 38.5 38.5 31.1126 38.5 22C38.5 12.8874 31.1125 5.49999 22 5.49999C12.8874 5.49999 5.49996 12.8874 5.49996 22C5.49996 31.1126 12.8874 38.5 22 38.5ZM22 40.3333C32.1255 40.3333 40.3333 32.1255 40.3333 22C40.3333 11.8745 32.1255 3.66666 22 3.66666C11.8745 3.66666 3.66663 11.8745 3.66663 22C3.66663 32.1255 11.8745 40.3333 22 40.3333Z" fill="black"/>
<path d="M11 32.6608C11 31.7139 11.7077 30.9136 12.65 30.8091C19.7221 30.0263 24.31 30.0969 31.3665 30.8266C31.7189 30.8636 32.0528 31.0024 32.3276 31.2261C32.6024 31.4498 32.8061 31.7486 32.9138 32.0862C33.0215 32.4237 33.0286 32.7853 32.9342 33.1268C32.8398 33.4683 32.648 33.7749 32.3822 34.0092C24.0542 41.2683 19.2949 41.1684 11.5867 34.0166C11.2108 33.6682 11 33.1732 11 32.6617V32.6608Z" fill="black"/>
<path fill-rule="evenodd" clip-rule="evenodd" d="M31.272 31.7377C24.2714 31.0136 19.7495 30.9457 12.7498 31.7203C12.2787 31.7726 11.9166 32.175 11.9166 32.6617C11.9166 32.9239 12.0257 33.1723 12.2099 33.3446C16.0306 36.8885 18.9254 38.4899 21.7552 38.5C24.595 38.5101 27.6457 36.9215 31.7798 33.319C31.9112 33.2021 32.0057 33.0495 32.052 32.8799C32.0983 32.7103 32.0943 32.5309 32.0405 32.3635C31.9867 32.1961 31.8854 32.0479 31.749 31.937C31.6126 31.8261 31.4469 31.7572 31.272 31.7386V31.7377ZM12.5491 29.898C19.6954 29.1069 24.3503 29.1784 31.4618 29.9145C31.9919 29.9698 32.4943 30.1785 32.9077 30.515C33.321 30.8515 33.6272 31.3012 33.7889 31.8091C33.9506 32.317 33.9607 32.861 33.8179 33.3745C33.6752 33.888 33.3858 34.3488 32.9853 34.7004C28.7915 38.3561 25.299 40.3471 21.7497 40.3333C18.1903 40.3205 14.8518 38.2956 10.9642 34.6885C10.6858 34.4292 10.4639 34.1153 10.3124 33.7665C10.1608 33.4176 10.0828 33.0412 10.0833 32.6608C10.0819 31.9774 10.3328 31.3175 10.7878 30.8075C11.2428 30.2975 11.8699 29.9734 12.5491 29.8971V29.898Z" fill="black"/>
<path d="M29.3333 18.3333C29.3333 20.2783 28.5607 22.1435 27.1854 23.5188C25.8101 24.894 23.9449 25.6667 22 25.6667C20.055 25.6667 18.1898 24.894 16.8145 23.5188C15.4392 22.1435 14.6666 20.2783 14.6666 18.3333C14.6666 16.3884 15.4392 14.5231 16.8145 13.1479C18.1898 11.7726 20.055 11 22 11C23.9449 11 25.8101 11.7726 27.1854 13.1479C28.5607 14.5231 29.3333 16.3884 29.3333 18.3333Z" fill="black"/>
<path fill-rule="evenodd" clip-rule="evenodd" d="M22 23.8333C23.4587 23.8333 24.8576 23.2539 25.889 22.2224C26.9205 21.191 27.5 19.792 27.5 18.3333C27.5 16.8746 26.9205 15.4757 25.889 14.4442C24.8576 13.4128 23.4587 12.8333 22 12.8333C20.5413 12.8333 19.1423 13.4128 18.1109 14.4442C17.0794 15.4757 16.5 16.8746 16.5 18.3333C16.5 19.792 17.0794 21.191 18.1109 22.2224C19.1423 23.2539 20.5413 23.8333 22 23.8333ZM22 25.6667C23.9449 25.6667 25.8101 24.894 27.1854 23.5188C28.5607 22.1435 29.3333 20.2783 29.3333 18.3333C29.3333 16.3884 28.5607 14.5231 27.1854 13.1479C25.8101 11.7726 23.9449 11 22 11C20.055 11 18.1898 11.7726 16.8145 13.1479C15.4392 14.5231 14.6666 16.3884 14.6666 18.3333C14.6666 20.2783 15.4392 22.1435 16.8145 23.5188C18.1898 24.894 20.055 25.6667 22 25.6667Z" fill="black"/>
</svg>
