<svg width="29" height="29" viewBox="0 0 29 29" fill="none" xmlns="http://www.w3.org/2000/svg">
<path d="M19.0071 3.625H9.99292L3.625 9.99292V19.0071L9.99292 25.375H19.0071L25.375 19.0071V9.99292L19.0071 3.625ZM22.9583 18.0042L18.0042 22.9583H10.9958L6.04167 18.0042V10.9958L10.9958 6.04167H18.0042L22.9583 10.9958V18.0042Z" fill="#6C6B6B"/>
<path d="M14.4998 20.5417C15.1672 20.5417 15.7082 20.0007 15.7082 19.3333C15.7082 18.666 15.1672 18.125 14.4998 18.125C13.8325 18.125 13.2915 18.666 13.2915 19.3333C13.2915 20.0007 13.8325 20.5417 14.4998 20.5417Z" fill="#6C6B6B"/>
<path d="M13.2915 8.45825H15.7082V16.9166H13.2915V8.45825Z" fill="#6C6B6B"/>
</svg>
